# xmcd
# 
# Track frame offsets:
#     150
#     28402
#     51715
#     74965
#     103912
#     124435
#     150575
#     171075
#     190405
#     212330
#     238105
#     260830
#     282685
#     305657
# 
# Disc length: 4378
# 
# Revision: 2
# Processed by: cddbd v1.5.2PL0 Copyright (c) Steve Scherf et al.
# Submitted via: fre:ac v1.1beta1pre5
# 
DISCID=ef11180e
DTITLE=Eins:Vier - UNTITLED [CD2]
DYEAR=1999
DGENRE=Rock
TTITLE0=Words for Mary
TTITLE1=Not Save Yet
TTITLE2=Flake、夢に見るヘブン
TTITLE3=イメージの川
TTITLE4=if
TTITLE5=Bravo
TTITLE6=In the mist
TTITLE7=Flush,the
TTITLE8=Wind
TTITLE9=記憶の陰
TTITLE10=君がすて去ろうとも
TTITLE11=Mind、心と肉体を切り離して魂を呼び込め
TTITLE12=Liquid Blue Sky
TTITLE13=In a void space
EXTD=
EXTT0=
EXTT1=
EXTT2=
EXTT3=
EXTT4=
EXTT5=
EXTT6=
EXTT7=
EXTT8=
EXTT9=
EXTT10=
EXTT11=
EXTT12=
EXTT13=
PLAYORDER=
